<?xml version="1.0" encoding="utf-8"?>
<!-- Designed by Vexels.com - 2020 All Rights Reserved - https://vexels.com/terms-and-conditions/  -->
<svg version="1.1" id="Layer_1" xmlns="http://www.w3.org/2000/svg" xmlns:xlink="http://www.w3.org/1999/xlink" x="0px" y="0px"
	 viewBox="0 0 1200 1200" enable-background="new 0 0 1200 1200" xml:space="preserve">
<g>
	<ellipse fill="#43429f" cx="1034.018" cy="599.958" rx="115.982" ry="143.352"/>
	<circle fill="#43429f" cx="1003.066" cy="620.841" r="100.536"/>
	<path fill="#43429f" d="M995.818,723.908h-895.52c-17.855,0-32.33-14.475-32.33-32.33V535.272c0-17.855,14.475-32.33,32.33-32.33
		h895.52c17.855,0,32.33,14.474,32.33,32.33v156.306C1028.147,709.433,1013.673,723.908,995.818,723.908z"/>




	<path fill="#43429f" d="M1015.451,522.166H79.175C63.062,522.166,50,509.104,50,492.991v-7.211
		c0-16.113,13.062-29.175,29.175-29.175h936.277c16.113,0,29.175,13.062,29.175,29.175v7.211
		C1044.626,509.104,1031.564,522.166,1015.451,522.166z"/>
	<path fill="#43429f" d="M1033.417,743.394H65.461c-7.365,0-13.335-5.97-13.335-13.335v0c0-7.365,5.97-13.335,13.335-13.335h967.957
		c7.365,0,13.335,5.97,13.335,13.335v0C1046.752,737.424,1040.782,743.394,1033.417,743.394z"/>
</g>
	<g>
		<path d="M0.34375 111.502V0.96875H41.4071V111.502L20.8754 90.97L0.34375 111.502Z" fill="#EC8E73" transform="translate(950, 670) scale(3)"></path>
	</g>
</svg>
