<?xml version="1.0" encoding="utf-8"?>
<!-- Designed by Vexels.com - 2020 All Rights Reserved - https://vexels.com/terms-and-conditions/  -->
<svg version="1.1" id="Layer_1" xmlns="http://www.w3.org/2000/svg" xmlns:xlink="http://www.w3.org/1999/xlink" x="0px" y="0px"
	 viewBox="0 0 1200 1200" enable-background="new 0 0 1200 1200" xml:space="preserve">
<g>
	<ellipse fill="#C15C44" cx="1034.018" cy="599.958" rx="115.982" ry="143.352"/>
	<circle fill="#FFF6DE" cx="1003.066" cy="620.841" r="100.536"/>
	<path fill="#FFF6DE" d="M995.818,723.908h-895.52c-17.855,0-32.33-14.475-32.33-32.33V535.272c0-17.855,14.475-32.33,32.33-32.33
		h895.52c17.855,0,32.33,14.474,32.33,32.33v156.306C1028.147,709.433,1013.673,723.908,995.818,723.908z"/>
	<g>
		<path fill="#31353E" d="M489.468,719.52c-0.281,0.177-0.794-0.089-1.584-0.918c-0.42-0.403-0.738-1.024-1.187-1.771
			c-0.229-0.375-0.356-0.818-0.549-1.291c-0.19-0.475-0.366-0.995-0.472-1.562c-0.563-2.266-0.62-5.232-0.091-8.563
			c0.495-3.348,1.596-7.044,2.68-11.107c0.523-2.038,1.1-4.134,1.299-6.336c0.121-1.104,0.325-2.226,0.285-3.421
			c0.014-1.185,0.089-2.397-0.059-3.667c-0.305-5.056-1.644-10.71-3.622-16.984c-1.039-3.179-2.125-6.505-3.261-9.981
			c-1.134-3.525-2.3-7.272-3.188-11.337c-0.499-2.008-0.798-4.144-1.144-6.298c-0.197-2.201-0.444-4.433-0.365-6.76
			c-0.013-4.649,0.873-9.377,2.119-13.968c1.238-4.616,2.704-8.862,3.912-12.926c1.21-4.061,2.207-7.951,2.635-11.706
			c0.952-7.474-0.896-14.424-2.698-20.849c-1.842-6.414-3.579-12.465-3.941-18.164c-0.444-5.713,0.686-10.799,2.16-14.927
			c1.495-4.156,3.329-7.482,4.952-10.235c1.644-2.746,3.135-4.908,4.329-6.612c2.411-3.391,3.659-4.948,3.762-4.879
			c0.117,0.078-0.924,1.785-3.062,5.335c-1.056,1.781-2.392,4.022-3.842,6.818c-1.43,2.799-3.027,6.152-4.232,10.197
			c-1.188,4.037-1.971,8.788-1.283,14.045c0.611,5.28,2.534,10.949,4.71,17.326c1.068,3.199,2.178,6.608,2.975,10.343
			c0.813,3.714,1.206,7.847,0.886,12.042c-0.587,8.421-3.62,16.825-5.659,25.585c-2.209,8.794-1.832,16.663,0.189,24.127
			c0.903,3.71,2.084,7.264,3.252,10.706c1.168,3.428,2.342,6.781,3.392,10.022c2.088,6.509,3.577,12.814,3.797,18.748
			c0.268,5.904-0.927,11.419-2.398,15.531c-1.423,4.188-2.782,7.557-3.6,10.426c-0.849,2.861-1.223,5.185-1.255,7.035
			c-0.04,0.471-0.018,0.9,0.014,1.302c0.035,0.4,0.002,0.799,0.068,1.139c0.124,0.68,0.12,1.314,0.231,1.785
			C489.793,718.731,489.749,719.344,489.468,719.52z"/>
	</g>
	<g>
		<path fill="#31353E" d="M798.469,594.618c0.003,0.066-0.677,0.152-2.068,0.258c-1.391,0.106-3.493,0.232-6.335,0.378
			c-5.684,0.26-14.325,0.534-26.146,0.725c-23.643,0.416-60.005,0.561-110.875,0.36c-50.87-0.218-87.225-0.586-110.864-0.891
			c-11.819-0.156-20.459-0.3-26.144-0.435c-2.842-0.065-4.946-0.131-6.34-0.198c-1.393-0.066-2.076-0.133-2.076-0.199
			c0-0.066,0.683-0.129,2.076-0.188c1.394-0.059,3.498-0.113,6.341-0.163c5.687-0.095,14.328-0.158,26.149-0.176
			c23.641-0.043,59.998,0.109,110.864,0.328c50.865,0.2,87.219,0.27,110.854,0.203c11.815-0.052,20.453-0.089,26.139-0.114
			c2.841-0.031,4.945-0.036,6.34-0.017C797.781,594.509,798.466,594.552,798.469,594.618z"/>
	</g>
	<g>
		<path fill="#31353E" d="M586.595,582.982c0,0.531-6.573,0.961-21.878,0.961s-21.878-0.43-21.878-0.961
			c0-0.531,6.573-0.961,21.878-0.961S586.595,582.451,586.595,582.982z"/>
	</g>
	<g>
		<path fill="#31353E" d="M312.071,603.394c0.003-0.133,1.301-0.236,3.997-0.326c2.697-0.105,6.794-0.214,12.399-0.354
			c11.212-0.263,28.446-0.668,52.562-1.234c24.113-0.529,41.338-0.812,52.539-0.685c2.802,0.041,5.223,0.072,7.286,0.153
			c2.063,0.083,3.762,0.175,5.112,0.289c2.702,0.236,4.014,0.586,4.034,1.008c0.02,0.422-1.256,0.875-3.943,1.324
			c-1.344,0.228-3.04,0.449-5.101,0.642c-2.06,0.194-4.488,0.401-7.291,0.555c-11.216,0.664-28.474,0.955-52.61,0.733
			c-24.136-0.219-41.383-0.694-52.597-1.073c-5.607-0.199-9.706-0.391-12.401-0.562
			C313.359,603.676,312.068,603.526,312.071,603.394z"/>
	</g>
	<g>
		<path fill="#31353E" d="M95.42,573.969c-0.001-0.029,0.211-0.084,0.639-0.251c0.427-0.177,1.07-0.448,1.936-0.717
			c1.734-0.471,4.366-0.747,7.923-1.141c3.559-0.38,8.043-0.721,13.489-1.054c5.447-0.341,11.856-0.664,19.258-0.939
			c29.616-1.163,75.161-1.76,138.863-1.522c15.925,0.078,30.714,0.151,44.403,0.218c13.688,0.1,26.276,0.192,37.798,0.276
			c11.522,0.073,21.978,0.139,31.404,0.198c4.713,0.025,9.169,0.049,13.372,0.071c4.202,0.001,8.151,0.001,11.851,0.002
			c3.701-0.001,7.152-0.002,10.36-0.003c3.206-0.028,6.168-0.054,8.891-0.078c5.446-0.034,9.932-0.073,13.489-0.173
			c3.559-0.062,6.194-0.108,7.942-0.138c1.747-0.014,2.605,0.006,2.609,0.073c0.004,0.066-0.845,0.176-2.584,0.344
			c-1.742,0.152-4.37,0.381-7.919,0.691c-3.552,0.324-8.031,0.617-13.471,0.966c-2.721,0.176-5.681,0.367-8.886,0.574
			c-3.206,0.175-6.656,0.362-10.354,0.564c-3.7,0.195-7.648,0.403-11.849,0.624c-4.202,0.188-8.658,0.387-13.37,0.598
			c-9.427,0.437-19.885,0.801-31.41,1.215c-11.524,0.371-24.117,0.772-37.808,1.091c-13.693,0.341-28.486,0.635-44.415,0.89
			c-63.716,0.969-109.242,0.743-138.839,0.263c-7.401-0.14-13.804-0.277-19.248-0.44c-5.446-0.175-9.932-0.377-13.492-0.57
			c-3.562-0.232-6.2-0.388-7.955-0.779c-0.879-0.23-1.535-0.47-1.972-0.628C95.636,574.044,95.421,573.999,95.42,573.969z"/>
	</g>
	<g>
		<path fill="#31353E" d="M295.248,641.614c0.003,0.066-0.513,0.135-1.571,0.207c-1.057,0.067-2.662,0.163-4.819,0.19
			c-4.319,0.091-10.881,0.114-19.855,0.059c-17.948-0.116-45.545-0.551-84.15-1.43c-38.605-0.894-66.193-1.727-84.127-2.435
			c-8.967-0.357-15.521-0.681-19.832-0.971c-2.154-0.126-3.753-0.295-4.806-0.41c-1.054-0.12-1.566-0.213-1.56-0.279
			c0.015-0.147,2.084-0.113,6.396-0.058c4.318,0.078,10.874,0.197,19.841,0.359c17.942,0.399,45.53,1.013,84.131,1.872
			c38.6,0.914,66.187,1.567,84.128,1.992c8.966,0.249,15.52,0.432,19.837,0.552C293.171,641.405,295.24,641.467,295.248,641.614z"/>
	</g>
	<g>
		<path fill="#31353E" d="M643.089,665.735c-0.004,0.133-1.298,0.226-3.988,0.271c-2.69,0.039-6.777,0.048-12.365,0.018
			c-11.176-0.041-28.361-0.212-52.404-0.069c-24.042,0.172-41.224,0.568-52.398,0.756c-5.587,0.102-9.673,0.148-12.364,0.144
			c-2.691-0.01-3.986-0.086-3.992-0.219c-0.005-0.133,1.28-0.309,3.962-0.529c2.682-0.226,6.763-0.478,12.348-0.755
			c11.17-0.535,28.364-1.148,52.431-1.319c24.067-0.143,41.267,0.243,52.443,0.632c5.589,0.203,9.672,0.402,12.357,0.593
			C641.806,665.443,643.093,665.603,643.089,665.735z"/>
	</g>
	<g>
		<path fill="#31353E" d="M1003.066,667.825c0.022,1.927-10.814,3.793-34.309,4.773c-23.493,1.002-59.647,1.066-110.215-0.066
			c-25.284-0.56-46.957-1.226-65.245-1.837c-18.285-0.66-33.189-1.198-44.935-1.622c-11.741-0.479-20.324-0.828-25.975-1.059
			c-2.822-0.145-4.911-0.251-6.297-0.322c-1.384-0.089-2.061-0.163-2.06-0.229s0.68-0.122,2.066-0.175
			c1.388-0.034,3.479-0.087,6.303-0.157c5.654-0.094,14.242-0.235,25.989-0.43c23.492-0.452,59.618-1.147,110.164-2.119
			c25.267-0.497,46.927-0.886,65.207-1.049c18.28-0.161,33.179-0.105,44.924,0.194
			C992.171,664.307,1003.043,665.879,1003.066,667.825z"/>
	</g>
	<g>
		<path fill="#31353E" d="M592.25,541.928c0-0.066,0.977-0.136,2.972-0.21c1.995-0.073,5.008-0.15,9.079-0.229
			c8.141-0.164,20.515-0.324,37.441-0.474c33.853-0.286,85.919-0.518,158.766-0.201c72.846,0.342,124.908,1.045,158.757,1.637
			c16.924,0.304,29.296,0.576,37.435,0.813c4.07,0.116,7.082,0.22,9.076,0.311c1.994,0.091,2.971,0.17,2.97,0.237
			c-0.001,0.066-0.98,0.117-2.976,0.151c-1.996,0.034-5.01,0.051-9.081,0.05c-8.144-0.044-20.517-0.111-37.442-0.202
			c-33.851-0.244-85.91-0.731-158.749-1.074c-72.839-0.316-124.9-0.299-158.752-0.362c-16.925-0.062-29.298-0.107-37.442-0.137
			c-4.071-0.036-7.085-0.08-9.08-0.132C593.228,542.054,592.25,541.994,592.25,541.928z"/>
	</g>
	<g>
		<path fill="#31353E" d="M560.436,544.926c-0.024,0.273-2.424,0.279-7.589,0.051c-5.165-0.219-13.096-0.681-24.2-1.114
			c-11.105-0.414-19.048-0.558-24.215-0.732c-5.167-0.166-7.559-0.355-7.563-0.629c-0.003-0.257,2.384-0.549,7.562-0.73
			c5.177-0.173,13.149-0.245,24.289,0.17c11.14,0.434,19.083,1.113,24.232,1.68C558.101,544.197,560.459,544.67,560.436,544.926z"/>
	</g>
	<g>
		<path fill="#31353E" d="M437.519,548.911c0,0.531-54.608,0.961-181.76,0.961s-181.76-0.43-181.76-0.961
			c0-0.531,54.608-0.961,181.76-0.961S437.519,548.38,437.519,548.911z"/>
	</g>
	<g>
		<path fill="#31353E" d="M456.596,538.313c0.044,0.529-1.831,1.117-6.279,1.488c-4.448,0.371-6.395,0.101-6.439-0.428
			c-0.044-0.529,1.831-1.117,6.279-1.488C454.605,537.514,456.552,537.784,456.596,538.313z"/>
	</g>
	<g>
		<path fill="#31353E" d="M222.372,534.409c-0.005,0.531-18.636,0.795-62.008,0.409s-61.996-0.982-61.991-1.513
			c0.005-0.531,18.636-0.795,62.008-0.409S222.376,533.878,222.372,534.409z"/>
	</g>
	<path fill="#C15C44" d="M1015.451,522.166H79.175C63.062,522.166,50,509.104,50,492.991v-7.211
		c0-16.113,13.062-29.175,29.175-29.175h936.277c16.113,0,29.175,13.062,29.175,29.175v7.211
		C1044.626,509.104,1031.564,522.166,1015.451,522.166z"/>
	<path fill="#C15C44" d="M1033.417,743.394H65.461c-7.365,0-13.335-5.97-13.335-13.335v0c0-7.365,5.97-13.335,13.335-13.335h967.957
		c7.365,0,13.335,5.97,13.335,13.335v0C1046.752,737.424,1040.782,743.394,1033.417,743.394z"/>
</g>
</svg>
